<svg xmlns="http://www.w3.org/2000/svg" viewBox="0 0 24 24" fill="none">
  <rect width="24" height="24" rx="4" fill="#12BFA6"/>
  <path d="M12 2.5c-1.2 0-3.2.9-4.1 2.8-.5 1-.3 2.3-.2 3.6.1 1.4-.4 1.6-1.6 1.6H5c-1.8 0-3.3 1.5-3.3 3.3 0 1 .5 2.1 1.3 2.8.05.04.06.11.015.16L1.4 18c-.06.09-.04.22.04.28.08.06.2.03.235-.06L3.3 16.1c.03-.05.095-.08.17-.08h.11c.53 0 1.04.07 1.5.07.47 0 .97-.07 1.48-.07h.11c.075 0 .14.03.17.08l1.46 2.14c.056.08.25.11.34.04.09-.07.11-.2.044-.29l-1-1.49c-.053-.06-.044-.14.015-.18.99-.86 1.66-2.24 1.66-3.52 0-2.1-1.71-3.8-3.8-3.8h-1.44c-.66 0-.81-.19-.78-1.22.04-1.48.12-2.77-.27-3.85C8.9 3.3 7.2 2.5 6.1 2.5h5.9z" fill="#fff"/>
  <circle cx="8.5" cy="8.5" r=".9" fill="#fff"/>
  <circle cx="15.5" cy="8.5" r=".9" fill="#fff"/>
</svg>
